<?xml version="1.0" encoding="utf-8"?>
<!-- Generator: Adobe Illustrator 19.2.1, SVG Export Plug-In . SVG Version: 6.00 Build 0)  -->
<svg version="1.1" id="Layer_1" xmlns="http://www.w3.org/2000/svg" xmlns:xlink="http://www.w3.org/1999/xlink" x="0px" y="0px"
	 viewBox="0 0 324.2 193.1" style="enable-background:new 0 0 324.2 193.1;" xml:space="preserve">
<style type="text/css">
	.st0{fill:#FF3D4D;}
	.st1{fill:#656565;}
</style>
<g>
	<polygon id="XMLID_126_" class="st0" points="51.3,82.8 49.7,82.8 49.7,95.5 37,95.5 37,97.1 49.7,97.1 49.7,109.8 51.3,109.8 
		51.3,97.1 64,97.1 64,95.5 51.3,95.5 	"/>
	<rect id="XMLID_125_" x="66.5" y="82.8" class="st0" width="1.7" height="27"/>
	<polygon id="XMLID_147_" class="st1" points="126.8,110 126.8,97.6 110.7,97.6 110.7,110 108.7,110 108.7,82.8 110.7,82.8 
		110.7,95.7 126.8,95.7 126.8,82.8 128.8,82.8 128.8,110 	"/>
	<path id="XMLID_144_" class="st1" d="M151.1,99.6c0-4.7-2.9-7.4-7.2-7.4c-3.7,0-6.9,2.7-7.3,7.4H151.1z M134.8,100.4
		c0-5.7,4.1-9.9,9.1-9.9s9.5,3.3,8.8,10.8h-16.1c0.4,4.5,3.6,7.1,7.3,7.1c2.4,0,5.1-1,6.4-2.9l1.3,1.1c-1.7,2.4-4.8,3.7-7.7,3.7
		C138.8,110.3,134.8,106.5,134.8,100.4"/>
	<path id="XMLID_141_" class="st1" d="M159.9,100.4c0,4.8,3.3,8,7.3,8c9.9,0,9.9-16,0-16C163.1,92.4,159.9,95.6,159.9,100.4
		 M176.3,98.6V110h-1.8v-4.1c-1.7,3-4.4,4.4-7.3,4.4c-5,0-9.1-4-9.1-9.9c0-5.9,4.1-9.8,9.1-9.8C175.5,90.6,176.3,98.6,176.3,98.6"/>
	<rect id="XMLID_140_" x="182.9" y="82.8" class="st1" width="1.8" height="27.2"/>
	<path id="XMLID_139_" class="st1" d="M195.5,85v5.8h6.1v1.6h-6.1v11.7c0,2.6,0.5,4.4,3.3,4.4c0.9,0,1.8-0.3,2.7-0.8l0.6,1.6
		c-1.1,0.6-2.2,1-3.4,1c-3.8,0-5-2.4-5-6.2V92.4H190v-1.6h3.8v-5.6L195.5,85z"/>
	<path id="XMLID_138_" class="st1" d="M209.2,82.8v11.6c1.4-2.8,3.9-3.8,6.4-3.8c5,0,7.5,3.5,7.5,8.5v11h-1.7V99
		c0-4-1.7-6.6-5.8-6.6c-3.8,0-6.4,3.1-6.4,7.1V110h-1.8V82.8H209.2z"/>
	<path id="XMLID_135_" class="st1" d="M229.6,110h1.8V90.7h-1.8V110z M231.9,84.5c0,2-2.9,2-2.9,0C229,82.5,231.9,82.5,231.9,84.5"
		/>
	<path id="XMLID_134_" class="st1" d="M252.8,107.3c-1.8,1.9-4.2,2.9-6.5,2.9c-5,0-9.2-3.7-9.2-9.8c0-6.1,4-9.8,9.2-9.8
		c2.4,0,4.7,1,6.5,2.9l-1.2,1.2c-1.4-1.6-3.4-2.3-5.4-2.3c-4.1,0-7.5,2.8-7.5,8c0,5.2,3.4,8,7.5,8c1.9,0,3.9-0.8,5.3-2.4
		L252.8,107.3z"/>
	<path id="XMLID_131_" class="st1" d="M258.3,110h1.8V90.7h-1.8V110z M260.6,84.5c0,2-2.9,2-2.9,0C257.8,82.5,260.6,82.5,260.6,84.5
		"/>
	<path id="XMLID_130_" class="st1" d="M271,85v5.8h6.1v1.6H271v11.7c0,2.6,0.5,4.4,3.3,4.4c0.9,0,1.8-0.3,2.8-0.8l0.6,1.6
		c-1.1,0.6-2.2,1-3.4,1c-3.8,0-5-2.4-5-6.2V92.4h-3.8v-1.6h3.8v-5.6L271,85z"/>
	<polygon id="XMLID_129_" class="st1" points="298.6,90.8 287.7,118 285.9,118 289.2,109.8 282,90.8 283.9,90.8 288.1,102.1 
		290.2,107.7 292.2,102.1 296.7,90.8 	"/>
	<polygon id="XMLID_124_" class="st0" points="209,123.3 213.5,123.3 213.5,123.9 209,123.9 209,127.4 208.4,127.4 208.4,119.5 
		213.7,119.5 213.7,120.1 209,120.1 	"/>
	<path id="XMLID_121_" class="st0" d="M215.1,127.4h0.6v-5.6h-0.6V127.4z M215.8,120c0,0.6-0.9,0.6-0.9,0
		C214.9,119.5,215.8,119.5,215.8,120"/>
	<path id="XMLID_120_" class="st0" d="M217.9,121.9v1c0.4-0.8,1.2-1.1,2-1.1c1.5,0,2.5,0.9,2.5,2.5v3.2h-0.6v-3.2
		c0-1.3-0.8-1.9-2-1.9c-1.1,0-1.9,0.9-1.9,2v3.1h-0.6v-5.6H217.9z"/>
	<path id="XMLID_117_" class="st0" d="M224.3,124.6c0,1.5,1,2.3,2.3,2.3c1.3,0,2.3-1,2.3-2.3s-1-2.3-2.3-2.3
		C225.3,122.3,224.3,123.1,224.3,124.6 M229.4,119.5v7.9h-0.5v-1.2c-0.5,0.8-1.4,1.3-2.3,1.3c-1.6,0-2.8-1-2.8-2.9
		c0-1.8,1.2-2.9,2.8-2.9c1,0,1.9,0.4,2.3,1.3v-3.5H229.4z"/>
	<path id="XMLID_116_" class="st0" d="M239.4,121.1c-0.6-0.9-1.5-1.1-2.4-1.1c-0.9,0-2.4,0.3-2.4,1.6c0,1,1.1,1.2,2.4,1.5
		c1.5,0.3,3.1,0.6,3.1,2.3c0,1.8-1.8,2.2-3.1,2.2c-1.2,0-2.6-0.5-3.2-1.7l0.5-0.3c0.5,1,1.7,1.4,2.7,1.4c1,0,2.5-0.3,2.5-1.7
		c0-1.2-1.3-1.4-2.6-1.7c-1.4-0.3-2.9-0.6-2.9-2c0-1.7,1.7-2.2,3-2.2c1.1,0,2.1,0.2,2.9,1.3L239.4,121.1z"/>
	<path id="XMLID_113_" class="st0" d="M241.6,127.4h0.6v-5.6h-0.6V127.4z M242.3,120c0,0.6-0.9,0.6-0.9,0
		C241.4,119.5,242.3,119.5,242.3,120"/>
	<path id="XMLID_112_" class="st0" d="M252.1,127.4v-3.3c0-1.1-0.7-1.8-1.8-1.8s-1.8,0.8-1.8,1.9v3.3H248v-3.3
		c0-1.1-0.7-1.8-1.8-1.8c-1.1,0-1.8,0.8-1.8,1.8v3.3h-0.6v-5.6h0.5l0,0.9c0.4-0.7,1.1-1,1.8-1c0.8,0,1.7,0.4,2.1,1.4
		c0.3-0.9,1.2-1.4,2.1-1.4c1.4,0,2.3,1,2.3,2.3v3.3H252.1z"/>
	<path id="XMLID_109_" class="st0" d="M259.5,124.6c0-1.6-1-2.3-2.3-2.3c-1.3,0-2.3,1-2.3,2.3c0,1.4,1,2.3,2.3,2.3
		C258.5,127,259.5,126.2,259.5,124.6 M254.4,130.1v-8.3h0.5v1.3c0.4-0.8,1.3-1.4,2.4-1.4c1.5,0.1,2.7,1.1,2.7,2.9
		c0,1.9-1.3,2.9-2.8,2.9c-0.9,0-1.8-0.5-2.3-1.4v4H254.4z"/>
	<rect id="XMLID_108_" x="261.5" y="119.5" class="st0" width="0.6" height="7.9"/>
	<path id="XMLID_105_" class="st0" d="M263.9,127.4h0.6v-5.6h-0.6V127.4z M264.6,120c0,0.6-0.9,0.6-0.9,0
		C263.7,119.5,264.6,119.5,264.6,120"/>
	<path id="XMLID_104_" class="st0" d="M270.7,126.7c-0.6,0.6-1.3,0.8-2,0.8c-1.6,0-2.9-1.1-2.9-2.9c0-1.8,1.3-2.9,2.9-2.9
		c0.7,0,1.5,0.3,2,0.8l-0.3,0.3c-0.5-0.4-1.1-0.7-1.7-0.7c-1.3,0-2.3,0.9-2.3,2.4c0,1.5,1.1,2.4,2.3,2.4c0.6,0,1.2-0.2,1.7-0.7
		L270.7,126.7z"/>
	<path id="XMLID_101_" class="st0" d="M271.9,127.4h0.6v-5.6h-0.6V127.4z M272.6,120c0,0.6-0.9,0.6-0.9,0
		C271.7,119.5,272.6,119.5,272.6,120"/>
	<path id="XMLID_100_" class="st0" d="M275.3,120.2v1.7h1.9v0.5h-1.9v3.4c0,0.8,0.2,1.3,1,1.3c0.3,0,0.6-0.1,0.9-0.2l0.2,0.4
		c-0.4,0.2-0.7,0.3-1,0.3c-1.2,0-1.6-0.7-1.6-1.8v-3.4h-1.2v-0.5h1.2v-1.6L275.3,120.2z"/>
	<polygon id="XMLID_99_" class="st0" points="283.3,121.9 279.8,130.1 279.2,130.1 280.3,127.3 278.1,121.9 278.7,121.9 280,125.1 
		280.7,126.8 281.3,125.1 282.7,121.9 	"/>
	<path class="st0" d="M58.9,131.1c-19.2,0-34.8-15.6-34.8-34.8c0-19.2,15.6-34.8,34.8-34.8c19.2,0,34.8,15.6,34.8,34.8
		C93.7,115.5,78.1,131.1,58.9,131.1z M58.9,63.4c-18.1,0-32.9,14.7-32.9,32.9s14.7,32.9,32.9,32.9s32.9-14.7,32.9-32.9
		S77.1,63.4,58.9,63.4z"/>
</g>
</svg>
