<?xml version="1.0" encoding="utf-8"?>
<!-- Generator: Adobe Illustrator 21.0.2, SVG Export Plug-In . SVG Version: 6.00 Build 0)  -->
<svg version="1.1" id="Layer_1" xmlns="http://www.w3.org/2000/svg" xmlns:xlink="http://www.w3.org/1999/xlink" x="0px" y="0px"
	 viewBox="0 0 1000 1000" style="enable-background:new 0 0 1000 1000;" xml:space="preserve">
<style type="text/css">
	.st0{fill:#FFFFFF;}
</style>
<path class="st0" d="M637,0.9c-196.8,0-356.8,160-356.8,356.8c0,85.4,30.1,163.9,80.4,225.3c-1.4,1.1-2.8,2.3-4.2,3.7L18.2,924.9
	c-17,17-17,44.6,0,61.6c8.5,8.5,19.6,12.8,30.8,12.8c11.1,0,22.3-4.3,30.8-12.8l338.3-338.2c1.7-1.7,3.3-3.6,4.6-5.5
	c59.7,45,133.9,71.7,214.3,71.7c196.7,0,356.8-160.1,356.8-356.8S833.7,0.9,637,0.9z M637,627.3c-148.6,0-269.6-120.9-269.6-269.6
	c0-148.6,120.9-269.6,269.6-269.6c148.6,0,269.6,120.9,269.6,269.6C906.6,506.3,785.6,627.3,637,627.3z"/>
</svg>
