<?xml version="1.0" encoding="utf-8"?>
<!-- Generator: Adobe Illustrator 17.1.0, SVG Export Plug-In . SVG Version: 6.00 Build 0)  -->
<!DOCTYPE svg PUBLIC "-//W3C//DTD SVG 1.1//EN" "http://www.w3.org/Graphics/SVG/1.1/DTD/svg11.dtd">
<svg version="1.1" id="Layer_1" xmlns="http://www.w3.org/2000/svg" xmlns:xlink="http://www.w3.org/1999/xlink" x="0px" y="0px"
	 viewBox="0 0 90.9 93.5" enable-background="new 0 0 90.9 93.5" xml:space="preserve">
<g>
	<g>
		<path fill="#FFFFFF" d="M41,51.2c9.5,0,9.8,5.7,9.8,5.7c1.1,13.6-5.2,30.3-5.2,30.3s-1.9,0.9-4.7,0.9c-2.8,0-4.8-0.9-4.8-0.9
			S29.7,70.6,30.8,57C30.8,57,31.6,51.2,41,51.2 M41,46c-11.1,0-14.9,6.5-15.4,10.3l0,0.1l0,0.1c-1.2,14.6,5.4,31.9,5.7,32.7l0.8,2
			l1.9,0.9c0.5,0.2,3.2,1.4,7,1.4c3.8,0,6.5-1.2,7-1.4l1.9-0.9l0.7-2c0.3-0.7,6.7-18,5.5-32.6C55.9,52.9,52.4,46,41,46"/>
	</g>
	<g>
		<path fill="#FFFFFF" d="M41,42.9c-6.1,0-11.1-5-11.1-11.1c0-6.1,5-11.1,11.1-11.1c6.1,0,11.1,5,11.1,11.1C52,38,47.1,42.9,41,42.9
			z M41,26c-3.2,0-5.9,2.6-5.9,5.9c0,3.2,2.6,5.9,5.9,5.9c3.2,0,5.9-2.6,5.9-5.9C46.8,28.6,44.2,26,41,26z"/>
	</g>
	<g>
		<path fill="#FFFFFF" d="M85.7,56.6c1.3,15.5-6.3,34.6-6.3,34.6s-2.2,1-5.4,1c-3.2,0-5.4-1-5.4-1s-7.4-19.1-6.2-34.6
			c0,0,0.9-6.5,11.7-6.5C84.8,50.1,85.7,56.6,85.7,56.6"/>
	</g>
	<g>
		<path fill="#FFFFFF" d="M83.6,37.2c0,5.3-4.3,9.7-9.7,9.7c-5.3,0-9.7-4.3-9.7-9.7c0-5.3,4.3-9.7,9.7-9.7
			C79.3,27.5,83.6,31.9,83.6,37.2"/>
	</g>
	<g>
		<path fill="#FFFFFF" d="M22,68.4c0.8,10.3-4.8,22.9-4.8,22.9s-1.4,0.7-3.6,0.7c-2.1,0-3.6-0.7-3.6-0.7S4.3,78.7,5.1,68.4
			c0,0,1.3-4.3,8.5-4.3C20.8,64.1,22,68.4,22,68.4"/>
	</g>
	<g>
		<path fill="#FFFFFF" d="M20,55.6c0,3.5-2.9,6.4-6.4,6.4c-3.5,0-6.4-2.9-6.4-6.4c0-3.5,2.9-6.4,6.4-6.4C17.1,49.2,20,52,20,55.6"/>
	</g>
</g>
</svg>
