<?xml version="1.0" encoding="utf-8"?>
<!-- Generator: Adobe Illustrator 17.1.0, SVG Export Plug-In . SVG Version: 6.00 Build 0)  -->
<!DOCTYPE svg PUBLIC "-//W3C//DTD SVG 1.1//EN" "http://www.w3.org/Graphics/SVG/1.1/DTD/svg11.dtd">
<svg version="1.1" id="Layer_1" xmlns="http://www.w3.org/2000/svg" xmlns:xlink="http://www.w3.org/1999/xlink" x="0px" y="0px"
	 viewBox="0 0 90.9 93.5" enable-background="new 0 0 90.9 93.5" xml:space="preserve">
<g>
	<path fill="#FFFFFF" d="M45.5,60.7c-5.2,0-10.1-0.8-14.7-2v34.8l14.7-10.9l14.7,10.9V58.6C55.6,59.9,50.7,60.7,45.5,60.7z M54.5,82
		L49,77.9l-3.4-2.6l-3.4,2.6L36.6,82V65.7c3,0.5,6,0.7,8.9,0.7c3,0,5.9-0.2,8.9-0.7V82z"/>
	<g>
		<path fill="#FFFFFF" d="M69.2,31.3l-9.7-5.6l9.9-5.7c0.8-0.5,1.1-1.5,0.6-2.3l-5.1-8.9c-0.5-0.8-1.5-1.1-2.3-0.6l-10.2,5.9V1.7
			c0-0.9-0.8-1.7-1.7-1.7H40.3c-0.9,0-1.7,0.8-1.7,1.7V14L28.5,8.1c-0.8-0.5-1.9-0.2-2.3,0.6l-5.1,9c-0.5,0.8-0.2,1.9,0.6,2.3
			l9.7,5.6l-9.8,5.7c-0.8,0.5-1.1,1.5-0.6,2.3l5.1,8.9c0.5,0.8,1.5,1.1,2.3,0.6l10.2-5.9v12.3c0,0.9,0.8,1.7,1.7,1.7h10.3
			c0.9,0,1.7-0.8,1.7-1.7V37.4l10.1,5.8c0.8,0.5,1.9,0.2,2.3-0.6l5.1-8.9C70.3,32.9,70,31.8,69.2,31.3"/>
	</g>
</g>
</svg>
