<?xml version="1.0" encoding="utf-8"?>
<!-- Generator: Adobe Illustrator 17.1.0, SVG Export Plug-In . SVG Version: 6.00 Build 0)  -->
<!DOCTYPE svg PUBLIC "-//W3C//DTD SVG 1.1//EN" "http://www.w3.org/Graphics/SVG/1.1/DTD/svg11.dtd">
<svg version="1.1" id="Layer_1" xmlns="http://www.w3.org/2000/svg" xmlns:xlink="http://www.w3.org/1999/xlink" x="0px" y="0px"
	 viewBox="0 0 90.9 93.5" enable-background="new 0 0 90.9 93.5" xml:space="preserve">
<g>
	<g>
		<path fill="#FFFFFF" d="M45.3,17.8c5,3.3,13.4,7,27.1,8v36.7c0,7.8-15.3,17.8-27.1,23.1c-11.7-5.2-26.8-15.3-26.8-23.1V25.8
			C32,24.8,40.4,21.1,45.3,17.8 M45.3,8.2c0,0-7,10.6-34.1,10.6v43.7c0,17.3,34.1,30.9,34.1,30.9s34.4-13.7,34.4-30.9V18.9
			C52.5,18.9,45.3,8.2,45.3,8.2"/>
	</g>
	<g>
		<path fill="#FFFFFF" d="M37.5,57.9c-0.1,4.6,1.9,7.4,6.7,7.5V52.7c-5.7-1.6-11.9-3.9-11.9-11.5c0-6.7,5.7-10.3,11.9-10.3v-2.2h2.3
			v2.2c6.3,0,11.5,3.3,11.5,10.2h-6c-0.2-3.5-1.8-5.5-5.5-5.5v11.1c6.3,1.7,12.4,4,12.4,11.6c0,7.9-5.5,11.5-12.4,11.8v2.1h-2.3
			v-2.1c-7.6-0.2-12.8-4.5-12.7-12.3H37.5z M44.2,35.6c-3.8,0-5.9,1.5-5.9,5.1c0,3.4,3,4.6,5.9,5.4V35.6z M46.4,65.4
			c3.8-0.3,6.4-2,6.4-6.2c0-3.9-3.2-5.1-6.4-6V65.4z"/>
	</g>
</g>
</svg>
