<?xml version="1.0" encoding="utf-8"?>
<!-- Generator: Adobe Illustrator 17.1.0, SVG Export Plug-In . SVG Version: 6.00 Build 0)  -->
<!DOCTYPE svg PUBLIC "-//W3C//DTD SVG 1.1//EN" "http://www.w3.org/Graphics/SVG/1.1/DTD/svg11.dtd">
<svg version="1.1" id="Layer_1" xmlns="http://www.w3.org/2000/svg" xmlns:xlink="http://www.w3.org/1999/xlink" x="0px" y="0px"
	 viewBox="0 0 90.9 93.5" enable-background="new 0 0 90.9 93.5" xml:space="preserve">
<g>
	<path fill="#FFFFFF" d="M31,77.3c0,0,2.2-7,13.7-7c11.5,0,13.5,7,13.5,7c0.4,4.8-0.1,9.9-1,14.8h5.4c4.5-5.8,7.2-13.8,7.2-22.6
		c0-17.8-11.3-32.2-25.1-32.2S19.5,51.7,19.5,69.5c0,8.8,2.8,16.7,7.2,22.6h5.4C31.2,87.2,30.6,82.1,31,77.3z M44.6,46.2
		c5.7,0,10.3,4.6,10.3,10.3c0,5.7-4.6,10.3-10.3,10.3c-5.7,0-10.3-4.6-10.3-10.3C34.3,50.8,38.9,46.2,44.6,46.2z"/>
	<path fill="#FFFFFF" d="M7.9,30.8c0-2.2,1.8-4,4-4h67c2.2,0,4,1.8,4,4v50.8c0,2.2-1.8,4-4,4h-67c-2.2,0-4-1.8-4-4V30.8 M0,30.8
		l0,50.8c0,6.6,5.3,11.9,11.9,11.9h67c6.6,0,11.9-5.3,11.9-11.9V30.8c0-6.6-5.3-11.9-11.9-11.9h-67C5.3,18.8,0,24.2,0,30.8L0,30.8z"
		/>
</g>
</svg>
