<?xml version="1.0" encoding="utf-8"?>
<!-- Generator: Adobe Illustrator 17.1.0, SVG Export Plug-In . SVG Version: 6.00 Build 0)  -->
<!DOCTYPE svg PUBLIC "-//W3C//DTD SVG 1.1//EN" "http://www.w3.org/Graphics/SVG/1.1/DTD/svg11.dtd">
<svg version="1.1" id="Layer_1" xmlns="http://www.w3.org/2000/svg" xmlns:xlink="http://www.w3.org/1999/xlink" x="0px" y="0px"
	 viewBox="0 0 145.6 67.8" enable-background="new 0 0 145.6 67.8" xml:space="preserve">
<g>
	<path fill="#FFFFFF" d="M29.3,40.7c0.8-1.3,1.7-2.6,2.6-4.1c-2.1,0-4.1,0-6.1-0.1c0.9,1.4,1.7,2.7,2.7,4.1
		C28.8,40.7,29,40.7,29.3,40.7z"/>
	<path fill="#FFFFFF" d="M19.4,36.4c-1.5-0.1-2.8-0.1-3.8-0.2c0.1,1.2,0.3,2.3,0.6,3.4c1.4,0.3,3.1,0.5,5.4,0.7
		C20.8,39,20,37.7,19.4,36.4z"/>
	<path fill="#FFFFFF" d="M22.1,41.1c-2.3-0.2-4.2-0.5-5.7-0.8c0.4,1.2,0.8,2.3,1.4,3.4c1.8,0.5,4,0.9,6.8,1.2
		C23.7,43.7,22.9,42.4,22.1,41.1z"/>
	<path fill="#FFFFFF" d="M30.4,50.2c-0.3,0.4-0.6,0.8-0.8,1.1c-0.4-0.4-0.7-0.8-1.1-1.3c-2.9-0.3-5.3-0.8-7.4-1.4
		c1.2,1.3,2.5,2.4,4,3.4c6.9,1.7,16.8,1.7,23.7,0c1.5-1,2.8-2.1,4-3.4C47.2,50.2,38.3,50.8,30.4,50.2z"/>
	<path fill="#FFFFFF" d="M25.2,45.7c-2.8-0.3-5.2-0.8-7-1.3c0.7,1.2,1.4,2.3,2.3,3.4c2.1,0.6,4.5,1.1,7.4,1.5
		C26.9,48.1,26.1,47,25.2,45.7z"/>
	<path fill="#FFFFFF" d="M35.3,31.6c-4.5,0-8.7,0.1-12.3,0.2c0.7,1.3,1.5,2.6,2.3,4c2.2,0,4.6,0,7.2,0.1
		C33.4,34.4,34.3,33,35.3,31.6z"/>
	<path fill="#FFFFFF" d="M52,19.1c-1.3-1.3-2.8-2.4-4.4-3.4c-6.4-1.5-15-1.5-21.5,0c-1.7,1-3.1,2.1-4.4,3.4
		C29.7,16.7,44.1,16.7,52,19.1z"/>
	<path fill="#FFFFFF" d="M46.3,14.9c-2.9-1.4-6-2.2-9.4-2.2c-3.4,0-6.5,0.8-9.4,2.2C33.3,13.8,40.5,13.8,46.3,14.9z"/>
	<path fill="#FFFFFF" d="M33.2,46.3c-0.9,1.2-1.6,2.3-2.4,3.3c8.1,0.6,17.1-0.1,22.5-1.7c0.9-1.1,1.6-2.2,2.3-3.4
		C50.8,45.8,41.9,46.6,33.2,46.3z"/>
	<path fill="#FFFFFF" d="M43.7,30.7c6.3,0.1,11.5,0.3,14.4,0.6c-0.2-1.2-0.4-2.3-0.7-3.4c-2.5-0.5-6.4-0.9-11.2-1.2
		C45.4,28.1,44.6,29.4,43.7,30.7z"/>
	<path fill="#FFFFFF" d="M55.2,23.2c-0.7-1.2-1.6-2.3-2.5-3.4c-8.1-2.4-23.6-2.4-31.6,0c-1,1.1-1.8,2.2-2.5,3.4
		C26.9,20.7,46.9,20.7,55.2,23.2z"/>
	<path fill="#FFFFFF" d="M38.6,26.6C29.6,26.5,20.8,27,16.4,28c-0.3,1.1-0.6,2.2-0.7,3.4c3.8-0.4,11.6-0.7,20.2-0.7
		C36.8,29.3,37.7,27.9,38.6,26.6z"/>
	<path fill="#FFFFFF" d="M39.2,25.8c0.9-1.3,1.8-2.6,2.6-3.7c-9-0.4-18.6,0.3-23.6,1.8c-0.6,1.1-1.1,2.2-1.5,3.4
		C21.1,26.2,30.1,25.7,39.2,25.8z"/>
	<path fill="#FFFFFF" d="M26.2,52.6c3.2,1.8,6.8,2.9,10.8,2.9c4,0,7.5-1.1,10.7-2.9C41.2,54.1,32.6,54.1,26.2,52.6z"/>
	<path fill="#FFFFFF" d="M33.8,45.6c8.7,0.2,17.6-0.5,22.3-1.8c0.5-1.1,1-2.2,1.3-3.4c-4.1,0.9-12.3,1.4-21,1.4
		C35.5,43.1,34.6,44.3,33.8,45.6z"/>
	<path fill="#FFFFFF" d="M43.1,31.6c-0.9,1.4-1.8,2.8-2.7,4.2c7.7,0,14.4-0.2,17.8-0.3c0-0.5,0-0.9,0-1.4c0-0.7,0-1.4-0.1-2.1
		C55.2,31.9,49.7,31.7,43.1,31.6z"/>
	<path fill="#FFFFFF" d="M37,40.9c8.6,0,16.5-0.5,20.6-1.3c0.3-1.1,0.5-2.2,0.6-3.4c-3.5,0.3-10.4,0.5-18.4,0.5
		C38.9,38.1,37.9,39.5,37,40.9z"/>
	<polygon fill="#FFFFFF" points="79.4,42.3 70.5,42.3 70.5,35.1 68.3,35.1 68.3,53 70.5,53 70.5,44.3 79.4,44.3 79.4,53 81.5,53 
		81.5,35.1 79.4,35.1 	"/>
	<path fill="#FFFFFF" d="M89,40.7c-3.8,0-5.8,2.9-5.8,6.5c0,3.4,2.3,6.2,5.9,6.2c2.5,0,4.4-1.2,5.5-3.4l-1.7-1
		c-0.8,1.4-1.9,2.5-3.7,2.5c-2.3,0-3.9-1.8-3.9-4h9.4C94.9,43.9,92.8,40.7,89,40.7z M85.3,45.7c0.2-1.7,1.9-3.1,3.7-3.1
		c1.8,0,3.2,1.4,3.5,3.1H85.3z"/>
	<path fill="#FFFFFF" d="M105.9,42.7L105.9,42.7c-1-1.3-2.5-2-4.2-2c-3.6,0-5.8,2.9-5.8,6.4c0,3.3,2.2,6.3,5.7,6.3
		c1.7,0,3.1-0.7,4.1-2h0.1V53h2V41h-2V42.7z M102,51.5c-2.6,0-3.9-2.2-3.9-4.6c0-2.2,1.5-4.3,3.9-4.3c2.5,0,4,1.9,4,4.3
		C106,49.4,104.6,51.5,102,51.5z"/>
	<rect x="110.2" y="34.2" fill="#FFFFFF" width="2" height="18.8"/>
	<polygon fill="#FFFFFF" points="117.1,36.7 115.1,36.7 115.1,41 113.8,41 113.8,42.9 115.1,42.9 115.1,53 117.1,53 117.1,42.9 
		119.3,42.9 119.3,41 117.1,41 	"/>
	<path fill="#FFFFFF" d="M126,40.7c-1.5,0-2.6,0.6-3.4,1.8l-0.1-0.1v-8.2h-2V53h2v-5.7c0-2.1,0.2-4.7,3-4.7c2.4,0,2.5,1.7,2.5,3.7
		V53h2v-7.1C130.1,43.1,129.4,40.7,126,40.7z"/>
	<polygon fill="#FFFFFF" points="74.5,32 82.1,16.1 99.5,16.1 99.5,14.4 80.7,14.4 74.5,27.3 70.9,19.2 66.3,19.2 66.3,20.7 
		69.3,20.7 	"/>
	<path fill="#FFFFFF" d="M91.9,28.2l-1.7-1c-0.8,1.4-1.9,2.5-3.6,2.5c-2.3,0-3.9-1.8-3.9-4H92c0.2-3.6-1.8-6.8-5.7-6.8
		c-3.8,0-5.8,2.9-5.8,6.5c0,3.4,2.3,6.2,5.9,6.2C88.8,31.5,90.7,30.3,91.9,28.2z M86.3,20.8c1.8,0,3.2,1.4,3.5,3.1h-7.2
		C82.9,22.2,84.5,20.8,86.3,20.8z"/>
	<path fill="#FFFFFF" d="M98.3,20.8c0.5,0,0.8,0.2,1.2,0.5l1-1.9c-0.6-0.3-1.1-0.6-1.8-0.6c-1.3,0-1.9,0.7-2.6,1.6H96v-1.3h-2v12h2
		v-6C96,23.6,96.1,20.8,98.3,20.8z"/>
	<rect x="101.9" y="19.2" fill="#FFFFFF" width="2" height="12"/>
	<path fill="#FFFFFF" d="M111.1,24.2c-1.4-0.6-2.8-1-2.8-2.1c0-0.8,0.8-1.3,1.5-1.3c0.7,0,1.4,0.6,1.6,1.2l1.7-0.9
		c-0.5-1.3-1.8-2.2-3.2-2.2c-1.9,0-3.6,1.4-3.6,3.4c0,3.8,5.4,2.9,5.4,5.5c0,1.1-0.8,1.8-1.9,1.8c-1.4,0-1.9-0.8-2.5-1.9l-1.8,0.8
		c0.6,1.9,2.2,3.1,4.2,3.1c2.2,0,4.1-1.6,4.1-3.9C113.9,25.6,112.5,24.8,111.1,24.2z"/>
	<polygon fill="#FFFFFF" points="117.6,26.3 118.1,25.7 123,31.2 125.7,31.2 119.6,24.3 124.7,19.2 122,19.2 117.6,23.6 117.6,12.5 
		115.6,12.5 115.6,31.2 117.6,31.2 	"/>
	<path fill="#FFFFFF" d="M102.9,16.7c0.8,0,1.5-0.6,1.5-1.5c0-0.8-0.7-1.5-1.5-1.5c-0.8,0-1.5,0.7-1.5,1.5
		C101.4,16,102.1,16.7,102.9,16.7z"/>
</g>
</svg>
