<?xml version="1.0" encoding="utf-8"?>
<!-- Generator: Adobe Illustrator 19.2.1, SVG Export Plug-In . SVG Version: 6.00 Build 0)  -->
<svg version="1.1" id="Layer_1" xmlns="http://www.w3.org/2000/svg" xmlns:xlink="http://www.w3.org/1999/xlink" x="0px" y="0px"
	 viewBox="0 0 95.2 74.8" style="enable-background:new 0 0 95.2 74.8;" xml:space="preserve">
<style type="text/css">
	.st0{fill:#FFFFFF;}
	.st1{opacity:0.45;fill:#FFFFFF;enable-background:new    ;}
</style>
<title>linkedin-icon</title>
<path class="st0" d="M83.2,24C75.6,29.3,68,34.5,60.5,39.8c-3.2,2.2-8.5,6.7-12.4,6.7h0h0c-3.9,0-9.3-4.5-12.4-6.7
	C28,34.5,20.4,29.3,12.9,24c-3.4-2.3-8.4-7.8-8.4-12.2C4.5,7,7.1,3,12.3,3h71.5c4.2,0,7.8,3.5,7.8,7.8C91.5,16.2,87.5,21.1,83.2,24z
	"/>
<path class="st1" d="M91.5,63.6c0,4.3-3.5,7.8-7.8,7.8H12.3c-4.3,0-7.8-3.5-7.8-7.8V25c1.5,1.6,3.1,3,4.9,4.2
	c8.1,5.5,16.2,11,24.1,16.8c4.1,3,9.1,6.7,14.4,6.7h0h0c5.3,0,10.3-3.7,14.4-6.7c7.9-5.7,16.1-11.3,24.2-16.8
	c1.7-1.2,3.4-2.6,4.9-4.2V63.6z"/>
</svg>
