<?xml version="1.0" encoding="utf-8"?>
<!-- Generator: Adobe Illustrator 19.2.1, SVG Export Plug-In . SVG Version: 6.00 Build 0)  -->
<svg version="1.1" id="Layer_1" xmlns="http://www.w3.org/2000/svg" xmlns:xlink="http://www.w3.org/1999/xlink" x="0px" y="0px"
	 viewBox="0 0 119.6 119.6" style="enable-background:new 0 0 119.6 119.6;" xml:space="preserve">
<style type="text/css">
	.st0{fill:#FFFFFF;}
</style>
<g>
	<path class="st0" d="M79.2,74.5c-1.6-1.2-3.1-3.3-3.1-3.3l-4.5-6.7h0l-20.4-32H32.8v54.6h15.2l0-35l22,35h16.7V75.9h-3.4
		C83.4,75.9,81.1,75.9,79.2,74.5"/>
	<path class="st0" d="M86.7,72.2V59.1l0-26.7H71.5c0,0,0,23.8,0,24.1c0,0.8,0.1,1,0.3,1.4l0,0l8.3,12.1c1.2,1.9,3.2,2.1,4.1,2.1
		c0.3,0,1,0,1.8,0H86.7z"/>
</g>
</svg>
