<?xml version="1.0" encoding="utf-8"?>
<!-- Generator: Adobe Illustrator 19.2.1, SVG Export Plug-In . SVG Version: 6.00 Build 0)  -->
<svg version="1.1" id="Layer_1" xmlns="http://www.w3.org/2000/svg" xmlns:xlink="http://www.w3.org/1999/xlink" x="0px" y="0px"
	 viewBox="0 0 119.6 119.6" style="enable-background:new 0 0 119.6 119.6;" xml:space="preserve">
<style type="text/css">
	.st0{clip-path:url(#SVGID_2_);fill:#0177a9;}
</style>
<g>
	<g>
		<g>
			<defs>
				<path id="SVGID_1_" d="M38.4,62.7L38.4,62.7c-1.6-2.6-3-5-4.3-7.4c6.7-0.2,14.4-0.3,22.6-0.3c-1.8,2.6-3.4,5.2-5.1,7.8
					C46.9,62.8,42.5,62.8,38.4,62.7 M87.5,32c-2.5-2.5-5.1-4.5-8.1-6.3c-11.9-2.7-27.6-2.7-39.5,0c-3,1.8-5.7,3.8-8.1,6.3
					C46.5,27.8,72.9,27.8,87.5,32z M31.5,71.1c-1.5-2.4-2.8-4.8-4-7.1c-2.8-0.1-5.1-0.3-6.9-0.4c0.2,2.2,0.6,4.2,1.1,6.2
					C24.2,70.3,27.4,70.7,31.5,71.1z M57.7,53.5c1.8-2.6,3.4-5.1,5.1-7.6C46.2,45.7,30,46.7,22,48.4c-0.6,2-1.1,4.1-1.3,6.3
					C27.7,54,42,53.5,57.7,53.5z M39.3,64.3c1.6,2.6,3.2,5,4.9,7.6c0.5,0,1,0,1.5,0c1.5-2.4,3.2-4.9,4.8-7.5
					C46.6,64.4,42.9,64.4,39.3,64.3z M66.1,62.9c14.2-0.1,26.5-0.3,32.8-0.6c0-0.8,0.1-1.7,0.1-2.5c0-1.3-0.1-2.5-0.2-3.8
					c-5.6-0.4-15.5-0.8-27.6-0.9C69.5,57.7,67.9,60.2,66.1,62.9z M47.8,89.2c-0.5,0.7-1.1,1.4-1.6,2c-0.7-0.8-1.4-1.6-2-2.4
					c-5.3-0.6-9.8-1.5-13.6-2.6c2.2,2.4,4.6,4.5,7.3,6.3c12.7,3.1,30.9,3.1,43.6,0c2.7-1.8,5.1-3.9,7.3-6.3
					C78.6,89.3,62.3,90.4,47.8,89.2z M79.4,93.8c-11.8,2.6-27.6,2.6-39.5,0c5.9,3.4,12.4,5.3,19.8,5.3C67,99,73.5,97.2,79.4,93.8z
					 M43.1,87.6c-1.7-2.1-3.3-4.2-5-6.5c-5.2-0.6-9.5-1.4-12.9-2.4c1.2,2.2,2.6,4.3,4.3,6.3C33.2,86.1,37.8,87,43.1,87.6z
					 M30.6,33.3c-1.8,1.9-3.3,4-4.7,6.3c15.4-4.6,52.1-4.6,67.5,0c-1.4-2.3-2.9-4.3-4.7-6.2C73.9,28.9,45.5,28.9,30.6,33.3z
					 M76.7,46.3c-1.4,2.3-2.9,4.7-4.6,7.3c11.6,0.2,21.1,0.6,26.5,1.2c-0.3-2.2-0.7-4.2-1.3-6.3C92.7,47.4,85.6,46.7,76.7,46.3z
					 M25.2,40.9c-1.1,2-2,4-2.7,6.2c8.2-1.9,24.7-3,41.4-2.8c1.7-2.5,3.2-4.7,4.8-6.9C52.1,36.8,34.5,38.1,25.2,40.9z M77,24.5
					c-5.3-2.6-11-4-17.3-4c-6.3,0-12,1.4-17.3,4C53.1,22.4,66.3,22.4,77,24.5z M37.1,79.6c-1.6-2.3-3.2-4.6-4.7-7.1
					c-4.3-0.4-7.7-0.9-10.4-1.5c0.7,2.2,1.5,4.2,2.5,6.3C27.8,78.3,32,79.1,37.1,79.6z M52.9,82.1c-1.6,2.2-3,4.1-4.4,6
					c14.9,1,31.4-0.1,41.3-3.2c1.6-2,3-4,4.3-6.3C85.3,81.3,68.9,82.6,52.9,82.1z M65,64.5c-1.8,2.6-3.4,5.1-5.2,7.7
					c15.8,0,30.4-0.9,37.8-2.3c0.5-2.1,0.9-4.1,1.1-6.3C92.3,64.1,79.6,64.4,65,64.5z M58.8,73.7c-1.7,2.5-3.3,4.8-4.9,7.1
					c16,0.4,32.3-0.9,40.9-3.4c1-2,1.8-4,2.5-6.3C89.7,72.7,74.7,73.7,58.8,73.7z"/>
			</defs>
			<use xlink:href="#SVGID_1_"  style="overflow:visible;fill:#0177a9;"/>
			<clipPath id="SVGID_2_">
				<use xlink:href="#SVGID_1_"  style="overflow:visible;"/>
			</clipPath>
			<rect x="20.6" y="20.5" class="st0" width="78.4" height="78.6"/>
		</g>
	</g>
</g>
</svg>
