<?xml version="1.0" encoding="utf-8"?>
<!-- Generator: Adobe Illustrator 19.2.1, SVG Export Plug-In . SVG Version: 6.00 Build 0)  -->
<svg version="1.1" id="Layer_1" xmlns="http://www.w3.org/2000/svg" xmlns:xlink="http://www.w3.org/1999/xlink" x="0px" y="0px"
	 viewBox="0 0 200 200" style="enable-background:new 0 0 200 200;" xml:space="preserve">
<style type="text/css">
	.st0{fill:#FFFFFF;}
</style>
<path class="st0" d="M100,8.208c1.155,0,2.31,0.253,3.186,0.759l73.459,42.412c1.752,1.012,3.186,3.495,3.186,5.519v84.823
	c0,2.024-1.434,4.507-3.186,5.519l-73.459,42.412c-0.876,0.506-2.031,0.759-3.186,0.759c-1.155,0-2.31-0.253-3.186-0.759
	L23.354,147.24c-1.752-1.012-3.186-3.495-3.186-5.519V56.898c0-2.024,1.434-4.507,3.186-5.519L96.814,8.967
	C97.69,8.461,98.845,8.208,100,8.208 M100,3.465c-1.434,0-3.562,0.242-5.558,1.394L20.983,47.271
	c-3.22,1.859-5.558,5.908-5.558,9.626v84.823c0,3.719,2.337,7.767,5.558,9.626l73.459,42.412c1.996,1.152,4.124,1.394,5.558,1.394
	c1.434,0,3.562-0.242,5.558-1.394l73.459-42.412c3.22-1.859,5.558-5.908,5.558-9.626V56.898c0-3.719-2.337-7.767-5.558-9.626
	L105.558,4.86C103.562,3.707,101.434,3.465,100,3.465L100,3.465z"/>
<path class="st0" d="M127.258,61.946h-13.155v-0.018H51.962v4.317h28.515v76.797h4.997V66.245h15.615v76.815h5.001v-36.127h19.352
	c16.129,0,25.445-8.065,25.445-22.265C150.887,65.241,136.46,61.946,127.258,61.946z M126.233,102.617H106.09V66.263h20.826
	c16.248,0,18.975,12.269,18.975,18.291C145.89,92.962,140.889,102.617,126.233,102.617z"/>
</svg>
