<?xml version="1.0" encoding="utf-8"?>
<!-- Generator: Adobe Illustrator 19.2.1, SVG Export Plug-In . SVG Version: 6.00 Build 0)  -->
<svg version="1.1" id="Layer_1" xmlns="http://www.w3.org/2000/svg" xmlns:xlink="http://www.w3.org/1999/xlink" x="0px" y="0px"
	 viewBox="0 0 100 100" style="enable-background:new 0 0 100 100;" xml:space="preserve">
<style type="text/css">
	.st0{fill:#FFFFFF;}
</style>
<path class="st0" d="M1.3,32.8H22v66.7H1.3V32.8z M11.6-0.3c6.6,0,12,5.4,12,12c0,6.6-5.4,12-12,12c-6.7,0-12-5.4-12-12
	C-0.4,5.1,5-0.3,11.6-0.3"/>
<path class="st0" d="M35,32.8h19.9v9.1h0.3c2.8-5.2,9.5-10.8,19.6-10.8c21,0,24.8,13.8,24.8,31.8v36.6H78.9V67.1
	c0-7.7-0.2-17.7-10.8-17.7c-10.8,0-12.4,8.4-12.4,17.1v33H35C35,99.5,35,32.8,35,32.8z"/>
</svg>
