<?xml version="1.0" encoding="utf-8"?>
<!-- Generator: Adobe Illustrator 19.1.0, SVG Export Plug-In . SVG Version: 6.00 Build 0)  -->
<svg version="1.1" id="Layer_1" xmlns="http://www.w3.org/2000/svg" xmlns:xlink="http://www.w3.org/1999/xlink" x="0px" y="0px"
	 viewBox="-74 -25 100 100" style="enable-background:new -74 -25 100 100;" xml:space="preserve">
<style type="text/css">
	.st0{opacity:0.45;fill:#FFFFFF;}
	.st1{opacity:0.7;fill:#FFFFFF;}
	.st2{fill:#FFFFFF;}
	.st3{opacity:0.85;}
</style>
<path class="st0" d="M25.79-2.94L-6.13-18.91c-0.14-0.07-0.28-0.09-0.4-0.09c0.14,0.01,0.28,0.05,0.4,0.11L25.55-3.04
	c0.39,0.2,0.54,0.69,0.3,1.07L-7.04,51.48l30.55,15.28c1.52,0.76,2.77-0.01,2.77-1.71V-2.15C26.28-2.49,26.09-2.79,25.79-2.94z"/>
<path class="st1" d="M25.55-3.04L-6.13-18.88c-0.51-0.25-1.17-0.07-1.46,0.42l-21.25,34.54l21.8,35.42l32.9-53.47
	C26.08-2.35,25.94-2.85,25.55-3.04z"/>
<path id="XMLID_100_" class="st2" d="M-40.39,65.06c0,1.7-1.25,2.47-2.77,1.71l-28.72-14.36c-1.02-0.51-1.85-1.85-1.85-2.99v-66.71
	c0-1.14,0.83-1.65,1.85-1.14L-40.8-2.88c0.25,0.13,0.41,0.38,0.41,0.66V65.06z"/>
<g class="st3">
	<path class="st2" d="M-7.05,51.49L-40.17-2.33c-0.14-0.23-0.34-0.41-0.58-0.53l-0.04-0.02c0.25,0.13,0.41,0.38,0.41,0.67v37.04
		L-7.05,51.49z"/>
	<polygon class="st2" points="-70.03,-17.5 -40.8,-2.88 -70.03,-17.5 	"/>
</g>
</svg>
