<svg id="Layer_1" data-name="Layer 1" xmlns="http://www.w3.org/2000/svg" viewBox="0 0 249.6635 282.9303"><defs><style>.cls-1{fill:#fff;}</style></defs><title>Untitled-6</title><path class="cls-1" d="M145.6562,10.5a9.6242,9.6242,0,0,1,4.7032,1.12L258.7849,74.22a10.4341,10.4341,0,0,1,4.7031,8.146V207.565a10.434,10.434,0,0,1-4.7031,8.146l-108.4255,62.6a10.434,10.434,0,0,1-9.4062,0l-108.4256-62.6a10.434,10.434,0,0,1-4.7031-8.146V82.366a10.4341,10.4341,0,0,1,4.7031-8.146L140.9531,11.62a9.6239,9.6239,0,0,1,4.7031-1.12m0-7a16.5525,16.5525,0,0,0-8.2032,2.058L29.0275,68.1578A17.3763,17.3763,0,0,0,20.8244,82.366V207.565a17.3763,17.3763,0,0,0,8.203,14.2082l108.4256,62.6a17.3784,17.3784,0,0,0,16.4062,0l108.4256-62.6a17.3764,17.3764,0,0,0,8.2031-14.2082V82.366a17.3763,17.3763,0,0,0-8.2031-14.2082l-108.4255-62.6A16.5528,16.5528,0,0,0,145.6562,3.5h0Z" transform="translate(-20.8244 -3.5004)"/><path class="cls-1" d="M185.889,89.8178H166.4725V89.7907H77.9382a3.186,3.186,0,0,0-3.186,3.186h0a3.186,3.186,0,0,0,3.186,3.186H116.84v110.166a3.186,3.186,0,0,0,3.186,3.186H121.03a3.186,3.186,0,0,0,3.186-3.186V96.1627h23.0476V206.3557a3.186,3.186,0,0,0,3.186,3.186h1.0093a3.186,3.186,0,0,0,3.186-3.186V156.2189h28.5632c23.8068,0,37.557-11.9034,37.557-32.8631C220.7647,94.68,199.47,89.8178,185.889,89.8178Zm-1.5124,60.0292H154.6444V96.19h30.7384c23.9815,0,28.0066,18.11,28.0066,26.9973C213.3894,135.5966,206.0082,149.847,184.3766,149.847Z" transform="translate(-20.8244 -3.5004)"/></svg>