<?xml version="1.0" encoding="utf-8"?>
<!-- Generator: Adobe Illustrator 19.1.0, SVG Export Plug-In . SVG Version: 6.00 Build 0)  -->
<svg version="1.1" id="Layer_1" xmlns="http://www.w3.org/2000/svg" xmlns:xlink="http://www.w3.org/1999/xlink" x="0px" y="0px"
	 viewBox="0 0 250 50" style="enable-background:new 0 0 250 50;" xml:space="preserve">
<style type="text/css">
	.st0{fill-rule:evenodd;clip-rule:evenodd;fill:#FFFFFF;}
</style>
<g id="dribbble">
	<g>
		<path class="st0" d="M85.2,20.12c2.34,0,4.24-1.9,4.24-4.24c0-2.34-1.9-4.24-4.24-4.24c-2.34,0-4.24,1.9-4.24,4.24
			C80.95,18.22,82.85,20.12,85.2,20.12z M225.18,34.61c-0.65-0.45-1.14-0.53-1.56,0.35c-7.12,15.43-19.13,7.73-17.94,8.41
			c2.66-1.22,9.67-6.84,8.61-14.59c-0.64-4.74-4.71-6.84-9.03-6.09c-7.54,1.31-10.31,9.44-8.9,16.64c0.25,1.24,0.69,2.26,1.13,3.25
			c-8.52,6.93-11.9-6.2-12.28-7.77c-0.02-0.08,6.58-5.58,8.41-18.67c1.92-13.72-2.46-16.22-6.93-16.14
			c-8.28,0.14-10.52,17.45-7.51,31.87c-0.25,0.07-1.42,0.71-3.31,0.79c-1.36-4.26-7.15-8-8.66-6.56c-3.79,3.6,0.92,10.65,4.24,11.2
			c-1.99,12.27-14.45,9.23-12.13-6.14c4.06-7.53,7.14-18.74,6.59-25.5c-0.19-2.39-1.96-5.6-5.97-5.44c-7.7,0.3-8.54,17.62-7.63,29.9
			c-0.04-0.3-0.47,1.49-3.63,2.39c-0.75-4.14-7.42-8.3-8.99-6.3c-2.94,3.74,2.15,10.41,4.57,10.88
			c-1.99,12.27-14.45,9.23-12.13-6.14c4.06-7.53,7.14-18.74,6.59-25.5c-0.2-2.39-1.97-5.6-5.97-5.44c-7.7,0.3-8.54,17.62-7.63,29.9
			c-0.05-0.31-0.48,1.55-3.77,2.43c-0.11-5.37-6.81-7.84-8.41-6.12c-2.87,3.06,0.66,9.33,3.92,10.88
			c-1.99,12.27-14.45,9.23-12.13-6.14c4.06-7.53,7.14-18.74,6.59-25.5c-0.2-2.39-1.97-5.6-5.97-5.44c-7.7,0.3-8.32,18.49-7.42,30.77
			c-2.54,10.87-11.04,24.44-9.94-2.75c0.11-1.91,0.23-2.63-0.72-3.34c-0.71-0.56-2.33-0.29-3.22-0.27
			c-1.08,0.04-1.35,0.67-1.58,1.62c-0.55,2.46-0.65,4.84-0.73,8.09c-0.05,1.52-0.17,2.23-0.76,4.3c-0.59,2.07-3.92,5.86-5.75,5.23
			c-2.53-0.87-1.7-8.03-1.23-12.94c0.4-3.89-0.87-5.63-4.12-6.26c-1.9-0.4-3.06-0.34-5.04-0.96c-1.87-0.59-2.3-4.13-6.29-2.95
			c-2.18,0.65-0.78,5.27-1.31,8.7c-2.58,16.87-7.95,17.33-10.44,9.14c11.22-27.48,3.25-38.31-1.42-38.31
			c-4.86,0-10.42,3.35-8.07,24.77c-1.14-0.33-1.5-0.51-2.75-0.51c-7.08,0-11.91,5.73-11.91,12.79s4.83,12.79,11.91,12.79
			c4.18,0,7.12-1.9,9.34-4.84c1.45,2.08,3.22,4.88,6.45,4.75c9.63-0.37,12.43-20.13,12.76-21.23c1.03,0.16,2,0.46,2.95,0.62
			c1.58,0.24,1.7,0.86,1.66,2.46c-0.42,13.43,2.06,18.14,7.68,18.14c3.13,0,5.93-3.08,7.85-5.28c1.44,2.97,3.73,5.19,6.8,5.28
			C97.51,50,100.36,38.14,100.1,39.7c-0.2,1.22,2.41,10.05,10.08,10.08c9.52,0.04,11.27-10.46,11.47-12.16c0.02-0.32,0.03-0.29,0,0
			c0,0.04-0.01,0.07-0.01,0.12c3.01-0.56,4.57-2.18,4.57-2.18s2.42,14.38,11.38,14.22c9.34-0.17,11.07-9.66,11.29-11.45
			c0.03-0.41,0.04-0.36,0,0c0,0.02,0,0.04,0,0.07c3.58-1.3,4.52-2.61,4.52-2.61s1.92,14.09,11.38,14.22
			c8.43,0.11,11.55-8.52,11.57-12.13c1.42,0.02,4.05-0.84,3.99-0.89c0,0,3.09,12.32,11.71,12.95c4.05,0.3,7.08-2.28,8.82-3.45
			c4.07,3.29,17.61,7.5,26.17-7C228.23,37.39,225.64,34.93,225.18,34.61z M34.23,45.14c-4.13,0-6.78-3.82-6.78-7.94
			c0-4.12,2.43-7.94,6.57-7.94c1.86,0,2.89,0.2,4.34,1.46c0.26,1.03,1.01,3.42,1.37,4.51c0.49,1.45,1.06,2.69,1.64,4.03
			C40.53,42.71,37.81,45.14,34.23,45.14z M44.3,30.84c-0.17-0.27-0.14-0.11-0.33-0.36c-0.76-2.06-2.22-6.66-2.39-11.89
			c-0.19-5.91,0.79-12.84,3.7-12.84C47.25,5.76,49.34,19.8,44.3,30.84z M102.49,24.69c-0.47-3.51-0.49-19.14,3.26-18.71
			C107.82,6.81,104.44,21.57,102.49,24.69z M129.9,24.69c-0.47-3.51-0.49-19.14,3.26-18.71C135.23,6.81,131.85,21.57,129.9,24.69z
			 M157.09,24.9c-0.47-3.51-0.49-19.14,3.26-18.71C162.42,7.03,159.04,21.79,157.09,24.9z M187.11,5.06
			c3.43-0.36,3.29,14.63-3.6,24.09C182.62,25.73,181.26,6.23,187.11,5.06z M201.53,37.31c-1.1-5.57,1.75-9.22,4.68-9.63
			c1.03-0.16,2.51,0.5,2.81,1.74c0.49,2.34-0.07,5.82-6.64,10.23C202.39,39.69,201.78,38.55,201.53,37.31z"/>
	</g>
</g>
</svg>
