<?xml version="1.0" encoding="utf-8"?>
<!-- Generator: Adobe Illustrator 19.1.0, SVG Export Plug-In . SVG Version: 6.00 Build 0)  -->
<svg version="1.1" id="Layer_1" xmlns="http://www.w3.org/2000/svg" xmlns:xlink="http://www.w3.org/1999/xlink" x="0px" y="0px"
	 viewBox="0 0 100 100" style="enable-background:new 0 0 100 100;" xml:space="preserve">
<style type="text/css">
	.st0{fill-rule:evenodd;clip-rule:evenodd;fill:#FFFFFF;}
</style>
<g id="ball">
	<g>
		<path class="st0" d="M50,0C22.43,0,0,22.43,0,50s22.43,50,50,50s50-22.43,50-50S77.57,0,50,0z M83.06,23.06
			c5.95,7.27,9.55,16.52,9.64,26.6c-1.41-0.3-15.53-3.16-29.74-1.37c-0.3-0.73-0.61-1.47-0.92-2.2c-0.89-2.08-1.84-4.15-2.83-6.19
			C75,33.45,82.16,24.28,83.06,23.06z M50,7.36c10.85,0,20.77,4.07,28.31,10.76c-0.77,1.09-7.2,9.74-22.38,15.43
			c-7-12.86-14.76-23.42-15.94-25C43.2,7.77,46.55,7.36,50,7.36z M31.84,11.42c1.13,1.54,8.76,12.12,15.83,24.7
			c-19.98,5.3-37.57,5.23-39.48,5.2C10.96,28.07,19.89,17.05,31.84,11.42z M7.29,50.07c0-0.44,0.01-0.87,0.02-1.3
			c1.87,0.04,22.56,0.3,43.89-6.08c1.22,2.39,2.39,4.82,3.46,7.25c-0.57,0.16-1.13,0.33-1.68,0.51
			c-22.03,7.12-33.75,26.53-34.71,28.18C11.45,71.05,7.29,61.03,7.29,50.07z M50,92.77c-9.87,0-18.97-3.37-26.21-9.02
			c0.77-1.57,9.42-18.28,33.5-26.67c0.09-0.03,0.19-0.06,0.28-0.1c6,15.58,8.48,28.64,9.11,32.39C61.55,91.56,55.92,92.77,50,92.77z
			 M73.86,85.47c-0.44-2.6-2.71-15.1-8.3-30.45c13.38-2.14,25.14,1.36,26.6,1.83C90.26,68.73,83.44,78.99,73.86,85.47z"/>
	</g>
</g>
</svg>
