<?xml version="1.0" encoding="utf-8"?>
<!-- Generator: Adobe Illustrator 19.2.1, SVG Export Plug-In . SVG Version: 6.00 Build 0)  -->
<svg version="1.1" id="Layer_1" xmlns="http://www.w3.org/2000/svg" xmlns:xlink="http://www.w3.org/1999/xlink" x="0px" y="0px"
	 viewBox="0 0 119.6 119.6" style="enable-background:new 0 0 119.6 119.6;" xml:space="preserve">
<style type="text/css">
	.st0{fill:#FFFFFF;}
</style>
<path class="st0" d="M82.8,26.7L63.1,53.9c-0.7,1-0.1,1.9,1.4,2l7.7,0.6c1,0.1,1.5,0.4,1.7,1c0.1,0.2,0,0.5-0.2,0.8c0,0,0,0,0,0.1
	l0,0c0,0.1-0.1,0.1-0.1,0.2h0c0,0,0,0,0,0L39.4,94.6c-0.8,0.9-1.6,1-2.3,0.5c-0.7-0.5-1-1.3-0.3-2.3l19.7-27.2c0.7-1,0.1-1.9-1.4-2
	L47.3,63c-1-0.1-1.5-0.4-1.7-1c-0.1-0.2,0-0.5,0.2-0.8c0,0,0,0,0-0.1l0,0c0-0.1,0.1-0.1,0.1-0.2h0c0,0,0,0,0,0l34.1-36.1
	c0.8-0.9,1.6-1,2.3-0.5C83.2,24.9,83.5,25.7,82.8,26.7"/>
</svg>
