<?xml version="1.0" encoding="utf-8"?>
<!-- Generator: Adobe Illustrator 19.1.0, SVG Export Plug-In . SVG Version: 6.00 Build 0)  -->
<svg version="1.1" id="Layer_1" xmlns="http://www.w3.org/2000/svg" xmlns:xlink="http://www.w3.org/1999/xlink" x="0px" y="0px"
	 viewBox="0 0 250 50" style="enable-background:new 0 0 250 50;" xml:space="preserve">
<style type="text/css">
	.st0{fill:#FFFFFF;}
</style>
<g>
	<g>
		<g>
			<g>
				<polygon class="st0" points="26.33,7.4 34.05,7.4 34.05,35.49 48.33,35.49 48.33,42.61 26.33,42.61 				"/>
				<g>
					<path class="st0" d="M51.73,18.74h7.42V42.6h-7.42V18.74z M55.44,6.87c2.37,0,4.3,1.93,4.3,4.3c0,2.38-1.93,4.3-4.3,4.3
						c-2.37,0-4.3-1.92-4.3-4.3C51.14,8.8,53.07,6.87,55.44,6.87"/>
				</g>
				<polygon class="st0" points="90.14,7.39 97.55,7.39 97.55,28.44 105.95,18.73 115.03,18.73 105.31,29.77 114.83,42.61 
					105.51,42.61 97.65,30.81 97.55,30.81 97.55,42.61 90.14,42.61 				"/>
				<path class="st0" d="M63.25,18.74h7.12V22h0.1c0.99-1.88,3.41-3.85,7.02-3.85c7.52,0,8.9,4.94,8.9,11.37V42.6h-7.41V31
					c0-2.77-0.05-6.32-3.85-6.32c-3.85,0-4.45,3.02-4.45,6.12v11.8h-7.42V18.74z"/>
				<path class="st0" d="M130.64,27.89c0.05-2.47-1.88-4.55-4.55-4.55c-3.26,0-5.04,2.22-5.23,4.55H130.64z M136.91,38.47
					c-2.37,3.02-6.28,4.75-10.13,4.75c-7.41,0-13.34-4.94-13.34-12.6c0-7.66,5.93-12.6,13.34-12.6c6.92,0,11.27,4.94,11.27,12.6
					v2.32h-17.2c0.59,2.82,2.72,4.64,5.58,4.64c2.43,0,4.05-1.23,5.29-2.91L136.91,38.47z"/>
				<path class="st0" d="M153.49,24.51c-3.7,0-5.93,2.47-5.93,6.08c0,3.61,2.23,6.08,5.93,6.08c3.71,0,5.93-2.46,5.93-6.08
					C159.42,26.98,157.2,24.51,153.49,24.51 M166.25,42.59h-6.83v-3.16h-0.1c-1.14,1.73-4,3.76-7.37,3.76
					c-7.12,0-11.81-5.14-11.81-12.41c0-6.67,4.15-12.8,10.97-12.8c3.07,0,5.93,0.84,7.61,3.16h0.1V7.39h7.42V42.59z"/>
			</g>
			<path class="st0" d="M219.96,0h-42.61c-2.03,0-3.69,1.61-3.69,3.6V46.4c0,1.99,1.66,3.6,3.69,3.6h42.61c2.04,0,3.7-1.61,3.7-3.6
				V3.6C223.67,1.61,222,0,219.96,0z M188.5,42.61h-7.42V18.75h7.42V42.61z M184.79,15.48c-2.38,0-4.3-1.93-4.3-4.3
				c0-2.37,1.92-4.3,4.3-4.3c2.37,0,4.3,1.93,4.3,4.3C189.09,13.56,187.16,15.48,184.79,15.48z M216.27,42.61h-7.41v-11.6
				c0-2.77-0.05-6.33-3.85-6.33c-3.86,0-4.45,3.01-4.45,6.12v11.81h-7.41V18.75h7.11v3.26h0.1c0.99-1.87,3.41-3.85,7.02-3.85
				c7.5,0,8.89,4.94,8.89,11.37V42.61z"/>
		</g>
	</g>
</g>
</svg>
