<?xml version="1.0" encoding="utf-8"?>
<!-- Generator: Adobe Illustrator 19.1.0, SVG Export Plug-In . SVG Version: 6.00 Build 0)  -->
<svg version="1.1" id="Layer_1" xmlns="http://www.w3.org/2000/svg" xmlns:xlink="http://www.w3.org/1999/xlink" x="0px" y="0px"
	 viewBox="0 0 100 100" style="enable-background:new 0 0 100 100;" xml:space="preserve">
<style type="text/css">
	.st0{fill:#FFFFFF;}
</style>
<path class="st0" d="M1.27,32.82h20.75v66.68H1.27V32.82z M11.65-0.33c6.63,0,12.02,5.39,12.02,12.02c0,6.64-5.38,12.02-12.02,12.02
	c-6.66,0-12.02-5.39-12.02-12.02C-0.37,5.06,4.99-0.33,11.65-0.33"/>
<path class="st0" d="M35.02,32.82h19.86v9.11h0.29c2.77-5.24,9.53-10.77,19.61-10.77c20.97,0,24.85,13.81,24.85,31.77v36.57H78.92
	V67.08c0-7.74-0.15-17.69-10.77-17.69c-10.78,0-12.43,8.42-12.43,17.11v33h-20.7V32.82z"/>
</svg>
