<?xml version="1.0" encoding="utf-8"?>
<!-- Generator: Adobe Illustrator 19.1.0, SVG Export Plug-In . SVG Version: 6.00 Build 0)  -->
<svg version="1.1" id="Layer_1" xmlns="http://www.w3.org/2000/svg" xmlns:xlink="http://www.w3.org/1999/xlink" x="0px" y="0px"
	 viewBox="0 0 250 50" style="enable-background:new 0 0 250 50;" xml:space="preserve">
<style type="text/css">
	.st0{fill:#FFFFFF;}
</style>
<path class="st0" d="M27.39,40.45c0.46,0,0.69-0.15,0.92-0.54l10.4-19.41c1.23-2.31,2.47-4.85,3.08-6.09c0.08-0.23,0.31-0.15,0.31,0
	v34.44c0,0.39,0.23,0.62,0.62,0.62h6.47c0.39,0,0.62-0.23,0.62-0.62V2.54c0-0.39-0.23-0.62-0.62-0.62h-8.47
	c-0.54,0-0.85,0.23-1.08,0.62L26.16,28.97c-0.08,0.15-0.15,0.15-0.23,0L12.44,2.54c-0.23-0.39-0.54-0.62-1.08-0.62H2.89
	c-0.39,0-0.62,0.23-0.62,0.62v46.3c0,0.39,0.23,0.62,0.62,0.62h6.47c0.39,0,0.62-0.23,0.62-0.62V14.41c0-0.15,0.23-0.23,0.31,0
	c0.62,1.23,1.85,3.78,3.08,6.09l10.4,19.41c0.23,0.39,0.46,0.54,0.92,0.54H27.39z M128.85,0.77c0-0.39-0.23-0.62-0.62-0.62h-6.47
	c-0.39,0-0.62,0.23-0.62,0.62v15.18c0,0.23-0.08,0.31-0.31,0.23c-2.85-1.23-5.55-1.93-8.63-1.93c-9.55,0-16.64,6.47-16.64,17.57
	c0,12.48,7.47,18.18,16.02,18.18c4.01,0,7.16-1.08,10.4-3.39l5.32,2.7c0.92,0.46,1.54,0,1.54-0.85V0.77z M56.97,31.9
	c0,12.87,8.63,18.1,17.26,18.1c5.01,0,9.71-1.39,13.71-4.39c0.39-0.31,0.46-0.54,0.23-1l-2.08-3.93c-0.23-0.46-0.54-0.46-0.92-0.23
	c-3.7,2.16-6.78,3.16-10.48,3.16c-4.39,0-9.4-2.23-10.09-9.48c0-0.08,0-0.23,0.23-0.23h24.11c0.77,0,0.69-1.31,0.69-2.47
	c0-12.4-7.4-17.18-15.64-17.18C64.37,14.25,56.97,20.65,56.97,31.9L56.97,31.9z M168.91,43.61c-3.24,0-5.47-1.23-6.47-3.47
	c-0.46-1-0.69-2.31-0.69-4.31V15.33c0-0.39-0.23-0.62-0.62-0.62h-6.47c-0.39,0-0.62,0.23-0.62,0.62v20.8c0,3.24,0.46,5.39,1.23,7.16
	c2.08,4.55,6.55,6.7,12.4,6.7c4.39,0,7.7-1.08,11.02-3.39l5.32,2.7c0.92,0.46,1.54,0,1.54-0.85V15.33c0-0.39-0.23-0.62-0.62-0.62
	h-6.47c-0.39,0-0.62,0.23-0.62,0.62v21.34c0,1.93-0.08,2.77-1.31,4.01C174.15,42.99,171.61,43.61,168.91,43.61L168.91,43.61z
	 M103.35,31.9c0-7.4,4.08-11.25,9.25-11.25c2.62,0,5.01,0.62,7.01,2.39c1.39,1.23,1.54,2.31,1.54,4.93v8.71
	c0,1.93-0.08,2.77-1.31,4.01c-2.39,2.31-4.93,2.93-7.24,2.93C108.51,43.61,103.35,40.99,103.35,31.9L103.35,31.9z M137.87,48.84
	c0,0.39,0.23,0.62,0.62,0.62h6.47c0.39,0,0.62-0.23,0.62-0.62V15.33c0-0.39-0.23-0.62-0.62-0.62h-6.47c-0.39,0-0.62,0.23-0.62,0.62
	V48.84z M64.91,27.58c0.77-4.39,4.01-7.24,8.94-7.24s7.94,3.39,7.94,7.4c0,0.15-0.08,0.23-0.23,0.23H65.14
	C64.83,27.97,64.91,27.66,64.91,27.58L64.91,27.58z M137.17,4.31c0,2.39,2,4.31,4.55,4.31c2.54,0,4.55-1.93,4.55-4.31
	s-2-4.31-4.55-4.31C139.18,0,137.17,1.93,137.17,4.31L137.17,4.31z M240.02,48.84c0,0.39,0.23,0.62,0.62,0.62h6.47
	c0.39,0,0.62-0.23,0.62-0.62V28.51c0-3.93-0.62-6.39-1.62-8.4c-2.16-4.08-6.32-5.86-11.4-5.86c-4.62,0-8.86,1.62-12.17,4.85
	c-2.47-3.24-6.09-4.85-10.48-4.85c-4.16,0-7.47,1.08-10.63,3.39l-5.32-2.7c-0.92-0.46-1.54,0-1.54,0.85v33.05
	c0,0.39,0.23,0.62,0.62,0.62h6.47c0.39,0,0.62-0.23,0.62-0.62V27.58c0-2,0.15-2.93,1.16-4.01c1.69-1.85,4.24-2.85,6.86-2.85
	c4.31,0,7.01,2.47,7.01,7.01v21.11c0,0.39,0.23,0.62,0.62,0.62h6.47c0.39,0,0.62-0.23,0.62-0.62V27.58c0-2,0.15-2.93,1.16-4.01
	c1.69-1.85,4.24-2.85,6.86-2.85c2.85,0,5.01,1.08,6.16,3.16c0.54,1.08,0.85,2.47,0.85,4.39V48.84z"/>
</svg>
