<?xml version="1.0" encoding="utf-8"?>
<!-- Generator: Adobe Illustrator 21.0.2, SVG Export Plug-In . SVG Version: 6.00 Build 0)  -->
<svg version="1.1" id="Layer_1" xmlns="http://www.w3.org/2000/svg" xmlns:xlink="http://www.w3.org/1999/xlink" x="0px" y="0px"
	 viewBox="0 0 92 92" style="enable-background:new 0 0 92 92;" xml:space="preserve">
<style type="text/css">
	.st0{fill:#2D140D;}
	.st1{fill:#D80000;}
	.st2{fill:#F40000;}
	.st3{fill:#FFBC8F;}
</style>
<g>
	<g>
		<path class="st0" d="M89.6,45c0,0-10.2-2.1-14.5-9.6c0,0-2,3.5-4.2,3.7c0,0,0.6-4.1,3.2-5.9l-3.2-3.1h-7.3c0,0,1.9-5.7,4.5-6.1
			c0,0-4.4-2-7.3,0.5c0,0-9.5,1.4-1.5-6.1c0,0-11.5-4.5-13.5-9.5c-1.9,5-13.5,9.5-13.5,9.5c8,7.5-1.5,6.1-1.5,6.1
			c-2.9-2.5-7.3-0.5-7.3-0.5c2.6,0.5,4.5,6.1,4.5,6.1h-7.3l-3.2,3.1c2.6,1.9,3.2,5.9,3.2,5.9c-2.1-0.3-4.2-3.7-4.2-3.7
			C12.3,42.8,2,45,2,45l0,0c0,0,10.2,2.1,14.5,9.6c0,0,2-3.5,4.2-3.7c0,0-0.6,4.1-3.2,5.9l3.2,3.1h7.3c0,0-1.9,5.7-4.5,6.1
			c0,0,4.4,2,7.3-0.5c0,0,9.5-1.4,1.5,6.1c0,0,11.5,4.5,13.5,9.5c1.9-5,13.5-9.5,13.5-9.5c-8-7.5,1.5-6.1,1.5-6.1
			c2.9,2.5,7.3,0.5,7.3,0.5c-2.6-0.5-4.5-6.1-4.5-6.1h7.3l3.2-3.1c-2.6-1.9-3.2-5.9-3.2-5.9c2.1,0.3,4.2,3.7,4.2,3.7
			C79.3,47.1,89.6,45,89.6,45L89.6,45z"/>
		<g>
			<path class="st1" d="M46,1.5c1.1,7.5,1.8,14.8,2.3,22.3c0.5,7.5,0.6,14.8,0.6,22.3s-0.2,14.8-0.6,22.3c-0.5,7.5-1,14.8-2.3,22.3
				c-1.1-7.5-1.8-14.8-2.3-22.3c-0.5-7.5-0.6-14.8-0.6-22.3s0.2-14.8,0.6-22.3C44.3,16.4,44.9,8.9,46,1.5z"/>
		</g>
		<g>
			<path class="st2" d="M46,0c1.1,7.7,1.8,15.4,2.3,22.9c0.5,7.7,0.6,15.4,0.6,22.9c0,7.7-0.2,15.4-0.6,23c-0.5,7.7-1,15.4-2.3,23
				c-1.1-7.7-1.8-15.4-2.3-23c-0.5-7.7-0.6-15.4-0.6-23c0-7.7,0.2-15.4,0.6-22.9C44.3,15.4,44.9,7.7,46,0z"/>
		</g>
		<g>
			<path class="st2" d="M30.5,10.2c1.1,6,1.8,12,2.3,17.9c0.5,6,0.6,12,0.6,17.9c0,6-0.2,12-0.6,17.9c-0.5,6-1,12-2.3,17.9
				c-1.1-6-1.8-12-2.3-17.9C27.9,58,27.7,52,27.7,46s0.2-12,0.6-17.9C28.7,22.2,29.4,16.2,30.5,10.2z"/>
		</g>
		<g>
			<path class="st2" d="M60.7,10.2c1.1,6,1.8,12,2.3,17.9c0.5,6,0.6,12,0.6,17.9c0,6-0.2,12-0.6,17.9c-0.5,6-1,12-2.3,17.9
				c-1.1-6-1.8-12-2.3-17.9c-0.5-6-0.6-12-0.6-17.9c0-6,0.2-12,0.6-17.9C58.9,22.2,59.6,16.2,60.7,10.2z"/>
		</g>
	</g>
	<path class="st3" d="M73.4,35.7c-2.3-1.6-4.7-3.2-7.7-4c2.8,4,6.1,8.4,5.7,15.7c-0.3,5.7-3.1,9.6-6,12.8c-3.2,3.3-7.2,5.8-11.6,6.9
		c-2.6,0.9-5.2,1.4-7.9,1.5c-8.9,0-18.2-0.6-26.8,0.5c-0.1-0.8-0.2-1.6-0.5-2.4c3.5-0.9,8.3-2,8.7-6.1c0.2-2.3,0.2-28.2-0.2-30.1
		c-0.6-2.6-5.7-3.4-8.4-4c0-0.9,0.2-1.5,0.2-2.4c5.9-0.8,11.8-0.8,18.1-1.1C53.4,22.4,67.4,25.7,73.4,35.7z M39.4,29.3
		c-0.8,0.1-0.6,2.7-0.6,3.5c0.1,6.6-0.1,14.2-0.1,20.8c0,2-0.6,6.4,0.7,7.5c1.2,1,6,0.7,7.9,0.5c9.9-0.7,14.4-11.6,11-21.3
		c-2.1-6.2-7-10.5-15-11.1C42.1,29.1,39.6,29.3,39.4,29.3z"/>
</g>
</svg>
