<?xml version="1.0" encoding="utf-8"?>
<!-- Generator: Adobe Illustrator 21.0.2, SVG Export Plug-In . SVG Version: 6.00 Build 0)  -->
<svg version="1.1" id="Layer_1" xmlns="http://www.w3.org/2000/svg" xmlns:xlink="http://www.w3.org/1999/xlink" x="0px" y="0px"
	 viewBox="0 0 92 92" style="enable-background:new 0 0 92 92;" xml:space="preserve">
<style type="text/css">
	.st0{fill:#44230E;}
	.st1{fill:#FF9C00;}
	.st2{fill:#39CCFF;}
</style>
<g>
	<circle class="st0" cx="46.1" cy="46" r="26.7"/>
	<g>
		<path class="st1" d="M73.9,56.8L92,46L73.9,35.2c-0.9-2.3-2.1-4.4-3.5-6.4l4.1-11.4l-11.3,4.1c-1.9-1.4-4.1-2.6-6.4-3.5L46,0
			L35.2,18.1c-2.3,0.9-4.4,2.1-6.4,3.5l-11.3-4.1l4.1,11.3c-1.4,1.9-2.6,4.1-3.5,6.4L0,46l18.1,10.8c0.9,2.3,2.1,4.4,3.5,6.4
			l-4.1,11.4l11.3-4.1c1.9,1.4,4.1,2.6,6.4,3.5L46,92l10.8-18.1c2.3-0.9,4.4-2.1,6.4-3.5l11.4,4.1l-4.1-11.3
			C72,61.3,73.1,59.1,73.9,56.8z M46,70.8c-13.6,0-24.8-11.1-24.8-24.8S32.4,21.2,46,21.2S70.8,32.4,70.8,46l0,0
			C70.8,59.6,59.6,70.8,46,70.8L46,70.8L46,70.8z"/>
		<path class="st2" d="M62.6,45.4c0.1-1.2-0.9-2.3-1-3.6c0-0.6-0.3-1.3-0.5-1.9c-0.3-0.6-0.3-1.3-0.4-1.8h-0.1
			c0.8-1.5-1.4-3.3-2.4-4.5c-1.3-1.3-1.9-3-3.9-3.6c-0.9-0.4-1.8-0.9-2.8-1.3c-0.9-0.4-1.9-0.6-2.7-0.9c-0.9-0.4-1.5-1.2-2.6-1
			s-1.5,0.8-2.7,0.5c-2.3-0.8-4,0.5-5.8,1.8c-0.9,0.6-1.8,1.2-2.6,1.8c-0.3,0.3-0.5,0.6-0.8,1c-0.3,0.4-0.8,0.6-1,1.2
			c-0.5,0.8-1.3,1.3-2.1,1.8c-0.4,0.3-0.6,0.8-1.2,1c-0.6,0.4-0.8,0.3-0.8,1c0,1,0.5,1.8,0.5,2.7c0,0.5,0,1,0,1.5
			c0.1,0.5,0.3,0.9,0.4,1.4c0.3,0.9,0,1.9,0.4,2.7c0.5,0.8,1,1.7,1.7,2.3c0.6,0.8,1.3,1.7,1.9,2.6c0.4,0.5,1.8,1.3,1.8,2.1
			c1,0.3,1.3,1.4,2.2,1.4c0.5-0.1,1-0.1,1.4,0c0.5,0.1,0.9,0.3,1.4,0.4c0.9,0,1.5-0.8,2.4-1c0.9-0.3,1.9,0,2.8-0.4
			c1.7-1,2.7-2.8,2.8-4.8c0-1-0.3-2.1-0.9-2.8c-0.5-0.9-0.1-1.9-1-2.4c-0.9-0.4-1.9-0.8-3.1-0.8c-1-0.4-2.1-0.3-3.1,0.1
			c-1.7,1.2,2.1,3.9,0.1,4.8c-2.2,0.9-3.3-1.5-3.9-3.2c-0.3-1-0.3-2.2,0-3.2c0-0.5,0.1-0.9,0.3-1.4c0.3-0.4,0.8-0.6,1.2-0.8
			c0.8-0.5,1.4-1.3,2.2-1.8c0.8-0.5,1.8-0.9,2.7-1.2c1.2-0.3,2.3-0.3,3.5-0.3c0.5,0,1,0.1,1.5,0.1c0.5,0,0.9-0.3,1.4-0.3
			c0.8,0,0.5,0.3,0.5,0.9c0,0.4,0.3,0.8,0.5,1.2c0.6,0.8,1.2,1.5,1.8,2.3c1.3,1.5,1,4,0.9,5.9c-0.1,1,0,2.1,0.3,3.1
			c0.4,1.2-0.5,1.2-1.3,1.8c-0.5,0.8-1,1.5-1.4,2.3c-0.6,0.8-1.3,1.4-2.1,1.9c-0.6,0.6-1.4,1.2-2.1,1.7c-0.9,0.5-1.8,1-2.7,1.4
			c-1,0.4-2.2,0.6-3.2,0.9c-0.5,0.1-1,0.3-1.5,0.5c-0.4,0.3-0.6,0.8-1.2,1c-1.3,0.8-2.7,0.6-4.1,1.3c-0.8,0.4-3.3,0.5-3.5,1.4h-0.1
			c0.4,0.8,1.2,1.4,2.1,1.5c0.9,0.1,1.8,0.4,2.6,0.6c0.9,0.4,1.7,0.5,2.6,0.6c0.9,0,1.7,0.5,2.6,0.6c1,0.1,1.8-0.6,2.7-0.8
			c1-0.1,2.1-0.1,3.1-0.3c1-0.1,1.9-0.4,3-0.6c0.9-0.4,1.8-0.4,2.7-0.8c0.9-0.4,1.7-0.8,2.4-1.3c0.8-0.5,0.9-1.4,1.7-1.9
			c0.8-0.5,1.4-1,2.1-1.7c0.5-0.8,0.9-1.7,1-2.6c0.4-0.8,0.9-1.5,1.4-2.2c0.4-0.9,0.8-1.8,0.9-2.7c0.4-0.9,0.4-1.8,0.4-2.8
			c-0.1-0.5-0.6-0.8-0.4-1.4C62.3,46.1,62.4,45.7,62.6,45.4z"/>
	</g>
</g>
</svg>
