<?xml version="1.0" encoding="utf-8"?>
<!-- Generator: Adobe Illustrator 21.0.2, SVG Export Plug-In . SVG Version: 6.00 Build 0)  -->
<svg version="1.1" id="Layer_1" xmlns="http://www.w3.org/2000/svg" xmlns:xlink="http://www.w3.org/1999/xlink" x="0px" y="0px"
	 viewBox="0 0 92 92" style="enable-background:new 0 0 92 92;" xml:space="preserve">
<style type="text/css">
	.st0{fill:#418AF2;}
	.st1{fill:#FFFFFF;}
</style>
<g>
	<polygon class="st0" points="82.3,67.3 45.7,88.4 9.2,67.3 9.2,25.1 45.7,4 82.3,25.1 	"/>
	<g>
		<path class="st1" d="M46,0L5.2,23.1v46L46,92l40.8-22.9v-46L46,0z M11.2,40.5c2.4-23.5,21.6-27.6,21.6-27.6
			c-25.6,27.3,4.3,46.4,4.3,46.4l-20.4,4.5C9.9,54.1,11.2,40.5,11.2,40.5z M36.9,46c0.1-4.9,4.1-8.9,9.2-8.9s8.9,4.1,8.9,9.2
			c-0.1,4.9-4.1,8.9-9.1,8.9S36.9,51.1,36.9,46C36.9,46.1,36.9,46,36.9,46L36.9,46z M59.3,77.9c-21.3,9.3-34.4-5.6-34.4-5.6
			c36.1,9.2,37.7-26.5,37.7-26.5l14,15.9C71.7,72.3,59.3,77.9,59.3,77.9L59.3,77.9L59.3,77.9z M80,50.4c-10.9-36-42-18.9-42-18.9
			l6.1-20.3c11.6-1.2,22.8,6.7,22.8,6.7C85.9,31.5,80,50.4,80,50.4z"/>
	</g>
</g>
</svg>
