<?xml version="1.0" encoding="utf-8"?>
<!-- Generator: Adobe Illustrator 21.0.2, SVG Export Plug-In . SVG Version: 6.00 Build 0)  -->
<svg version="1.1" id="Layer_1" xmlns="http://www.w3.org/2000/svg" xmlns:xlink="http://www.w3.org/1999/xlink" x="0px" y="0px"
	 viewBox="0 0 92 92" style="enable-background:new 0 0 92 92;" xml:space="preserve">
<style type="text/css">
	.st0{fill:#FFBA0D;}
	.st1{fill:#FFFFFF;}
</style>
<g>
	<path class="st0" d="M18.3,9.1c7.8-6,17.3-9.2,27.3-9.1h1C56.3,0,66,3.1,73.8,9.1L66.7,19c-5.8-4.3-12.9-6.5-20-6.5h-1
		c-7.2,0-14.2,2.3-20,6.5L18.3,9.1z"/>
	<path class="st1" d="M46,92h-2.7h-1.1h-0.7l-1-0.1l-1.1-0.1l-1-0.1l-0.9-0.1l-0.6-0.1l-1.1-0.1L35.3,91c-1.6-0.4-3.1-0.9-4.7-1.4
		l-1-0.3L29.2,89l-1-0.4h-0.1c-5.3-2.1-10.1-5.4-14.2-9.4l-0.6-0.7c-17.7-17.9-17.7-47,0-65l0,0l0.9-0.9l7.2,8.9
		C10.5,32.7,8.2,49.7,15.9,63.3l0.7,1.1l19.7-19.3L42.9,30v24.6L23.8,73l1,0.7c1,0.7,1.8,1.4,2.8,2l0.7,0.4l0,0
		c5.1,3,11.1,4.5,17,4.5h1c6,0,11.8-1.6,17-4.5l0,0l0.7-0.4c1-0.6,2-1.3,2.8-2l1.1-0.7L49.2,54.5V30l6.5,15.2l19.7,19.3l0.6-1.1
		c7.8-13.6,5.5-30.8-5.5-41.9l7.2-8.9C96.1,30,96.9,58.9,79.6,77.4l-1,1.1l-0.9,0.9l0,0c-4,3.8-8.8,7-13.9,9.1h-0.1L62.4,89L62,89.2
		l-0.9,0.3c-1.6,0.6-3.3,1-4.8,1.4L56.1,91l-1.1,0.1l-0.4,0.1l-1.1,0.1l-0.9,0.1l-1.1,0.1l-1,0.1h-0.7h-1.1L46,92L46,92z"/>
</g>
</svg>
