<?xml version="1.0" encoding="utf-8"?>
<!-- Generator: Adobe Illustrator 21.0.2, SVG Export Plug-In . SVG Version: 6.00 Build 0)  -->
<svg version="1.1" id="Layer_1" xmlns="http://www.w3.org/2000/svg" xmlns:xlink="http://www.w3.org/1999/xlink" x="0px" y="0px"
	 viewBox="0 0 92 92" style="enable-background:new 0 0 92 92;" xml:space="preserve">
<style type="text/css">
	.st0{fill:#3390FF;}
	.st1{fill:#CCE1FF;}
</style>
<g>
	<path class="st0" d="M36.3,35.9c-0.6,0-1.4-0.1-2.2-0.8l-2.5-2.3h-4c4.7,5.9,11.2,14.2,15.3,19.2v-2.6c-0.4-1.6-0.6-3.1-0.6-5.1
		c0-2.1,0.2-4.3,0.6-6.4v-7.6l-4.1,4.5C38.3,35.5,37.5,35.9,36.3,35.9z"/>
	<path class="st0" d="M41.5,68.7H26.7l0,2c0,0,0.1,6.4,15,16.5c0.3,0.1,1.1,0.3,1.3,0c0,0,0,0,0-0.1V68.5
		C42.5,68.7,42,68.7,41.5,68.7z"/>
	<path class="st0" d="M11.1,8.4c1.8,0.8,3.7,1.7,5.5,2.6c2.9,1.5,8.2,4.8,9.4,6.8c0.3,0.5,0.5,1.1,0.6,1.7h16.4v-8.7
		c-0.2-0.1-0.2-0.4-0.4-0.4L27.4,4.5h-0.3L11.2,7.3c-0.3,0-0.4,0.3-0.4,0.6C10.8,8.1,10.9,8.4,11.1,8.4z"/>
</g>
<g>
	<path class="st1" d="M7.3,29.8h25.2l3.4,3C36,33,36,33,36.2,33l0,0c0.1,0,0.3,0,0.3-0.1l8.9-9.7c0.1-0.1,0.1-0.3,0.1-0.6
		c-0.1-0.1-0.3-0.3-0.4-0.3H12.4c-1.4-0.1-2.6,0.3-3.8,0.9c-0.9,0.8-1.8,2.3-1.8,4.7v1.3C6.8,29.4,7,29.6,7.3,29.8
		C7.3,29.6,7.3,29.6,7.3,29.8L7.3,29.8L7.3,29.8z M91.2,22.7h-36l-0.3,0.1l-6.5,6.1c-0.1,0.1-0.1,0.6,0,0.7c0.1,0.1,0.3,0.1,0.3,0.1
		h28.8l1.5,2.1c0.1,0.1,0.4,0.3,0.7,0.1l11.7-8.3c0.1-0.1,0.3-0.4,0-0.7C91.4,22.7,91.3,22.7,91.2,22.7L91.2,22.7L91.2,22.7z
		 M79.2,61c-0.9,0.1-2,0.3-2.9,0.3C67.8,61,60.8,54.5,60.1,46c-0.2-1.1-0.2-2.3-0.2-3.4c0-2.7,0.1-5.8,0.7-8.5c0-0.1,0-0.3-0.1-0.4
		c-0.1-0.1-0.3-0.1-0.4-0.1H47.2c-0.1,0-0.4,0.1-0.4,0.3c-1.1,3.2-1.7,6.7-1.7,10.2c0,2.7,0.4,4.2,1.4,7.6c2.5,7.7,11.7,15,19.1,15
		c11.2,0,14-3.9,14.1-5.2C79.7,61.1,79.6,61,79.2,61L79.2,61L79.2,61L79.2,61z M25.1,34l-0.4-0.1H10.2c-0.3,0-0.4,0.3-0.4,0.4
		c0,0.1,0,0.3,0.1,0.3c0,0,19.7,22.7,20.1,23.3c0,0,0,0.1,0.1,0.1l-0.1,0.1H18.4c-1.7,0-3.4-0.6-4.7-1.5c-0.6-0.4-0.9-0.9-1.4-1.5
		C12.2,55,12.2,55,11.9,55c-0.1,0-0.3,0-0.4,0.1L0.6,65c-0.1,0.1-0.1,0.6,0,0.7s0.1,0.1,0.3,0.1h40.6c2.4,0,3.9-2.5,4.1-4.8
		c0-0.9-0.3-2-0.8-2.6C42.9,56.6,25.1,34,25.1,34z"/>
</g>
<g>
	<path class="st0" d="M65.3,52.9l0-20.4H63c0.2,0.4,0.3,0.9,0.3,1.6v0.4l-0.1,0.3c-0.5,2.6-0.6,5.5-0.6,8c0,0.9,0,2,0.1,2.8v0.3
		C62.9,48.5,63.8,50.9,65.3,52.9z"/>
	<path class="st0" d="M53.5,20.4l1.3-0.4h10.6c0-0.7,0.2-1.5,0.6-2.2c1.2-2,6.4-5.4,9.4-6.8c1.8-0.9,3.7-1.8,5.5-2.6
		c0.2,0,0.3-0.3,0.3-0.4c0-0.3-0.1-0.6-0.4-0.6L64.9,4.4h-0.3l-15.1,6c-0.3,0-0.3,0.3-0.5,0.4v13.8L53.5,20.4z"/>
	<path class="st0" d="M48.9,60.9v26.2c0,0.1,0,0.1,0,0.1c0.2,0.3,0.9,0.1,1.3,0c14.9-10.1,15-16.5,15-16.5l0-1.2
		C59.6,69.4,53.3,65.8,48.9,60.9z"/>
</g>
</svg>
