<?xml version="1.0" encoding="utf-8"?>
<!-- Generator: Adobe Illustrator 21.0.2, SVG Export Plug-In . SVG Version: 6.00 Build 0)  -->
<svg version="1.1" id="Layer_1" xmlns="http://www.w3.org/2000/svg" xmlns:xlink="http://www.w3.org/1999/xlink" x="0px" y="0px"
	 viewBox="0 0 92 92" style="enable-background:new 0 0 92 92;" xml:space="preserve">
<style type="text/css">
	.st0{fill:#011D30;}
	.st1{fill:#FF9C00;}
</style>
<g>
	<circle class="st0" cx="45.9" cy="46.2" r="43.4"/>
	<g>
		<path class="st1" d="M92,46c0-9.2-2.7-18.3-8.1-26.1V8.7c0-0.4-0.3-0.7-0.7-0.7H71.9C56.2-2.7,35.6-2.7,20.1,8H8.8
			C8.7,8,8.5,8,8.4,8.1C8.2,8.3,8.2,8.4,8.2,8.6v11.1c-11,15.7-11,36.6,0,52.3v11.1c0,0.4,0.3,0.7,0.7,0.7h11.1
			c15.7,10.8,36.5,10.7,52.2-0.1h11.1c0.4,0,0.7-0.3,0.7-0.7l0,0V72C89.2,64.3,92,55.3,92,46z M6.2,46C6.2,24.1,24.1,6.3,46,6.3
			S85.8,24.1,85.8,46S67.9,85.8,46,85.8l0,0l0,0C24.1,85.8,6.2,67.9,6.2,46z"/>
		<path class="st1" d="M21.4,26.2h14.1c-0.3,1.6-0.4,3.2-0.4,4.8c0.6,6.3,4.8,23.5,4.8,23.5l6.6-26.9l6.8,26.4c0,0,4-23.2,4-24.8
			c-0.1-1.2-0.7-2.2-1.6-3h14.8c-2,1.9-3.5,4.2-4.2,6.8c-1.3,5.2-5.9,31-5.9,32.6c0.1,1.7,0.7,3.3,1.7,4.6H48.3
			c0.3-1.3,0.4-2.4,0.4-3.7c0-2.3-2.2-13.5-2.2-13.5s-2.7,11.7-2.7,13.7c0,1.3,0.3,2.4,0.9,3.6H30.3c0,0,2.7-1.9,2.6-3.7
			c-0.3-5.3-7.6-32.7-8.2-34.7C24.4,29.3,23.2,27.3,21.4,26.2z"/>
	</g>
</g>
</svg>
